<svg xmlns="http://www.w3.org/2000/svg" viewBox="0 0 48 60" fill="none">
  <!-- Carrot body -->
  <path d="M24 58C24 58 8 40 8 26C8 17.163 15.163 10 24 10C32.837 10 40 17.163 40 26C40 40 24 58 24 58Z" fill="#F3603F"/>
  <!-- Carrot highlight -->
  <path d="M18 18C18 18 16 24 17 30" stroke="#F7A593" stroke-width="2.5" stroke-linecap="round"/>
  <!-- Leaves -->
  <path d="M24 10C24 10 20 2 14 4C14 4 18 8 22 10" fill="#53B175"/>
  <path d="M24 10C24 10 24 1 30 2C30 2 28 7 24 10" fill="#53B175"/>
  <path d="M24 10C24 10 28 3 34 5C34 5 30 9 24 10" fill="#53B175"/>
</svg>
